<?xml version="1.0" encoding="UTF-8" standalone="no"?><svg xmlns="http://www.w3.org/2000/svg" xmlns:xlink="http://www.w3.org/1999/xlink" contentStyleType="text/css" height="1315px" preserveAspectRatio="none" style="width:1444px;height:1315px;background:#FFFFFF;" version="1.1" viewBox="0 0 1444 1315" width="1444px" zoomAndPan="magnify"><defs/><g><rect fill="#FFFFFF" height="1155.3594" style="stroke:#181818;stroke-width:1.0;" width="10" x="105" y="87.5703"/><rect fill="#FFFFFF" height="1034.4375" style="stroke:#181818;stroke-width:1.0;" width="10" x="395" y="178.1406"/><rect fill="#FFFFFF" height="973.7344" style="stroke:#181818;stroke-width:1.0;" width="10" x="660" y="208.4922"/><rect fill="#FFFFFF" height="30.3516" style="stroke:#181818;stroke-width:1.0;" width="10" x="840" y="238.8438"/><rect fill="#FFFFFF" height="30.3516" style="stroke:#181818;stroke-width:1.0;" width="10" x="932.5" y="299.5469"/><rect fill="#FFFFFF" height="30.3516" style="stroke:#181818;stroke-width:1.0;" width="10" x="932.5" y="360.25"/><rect fill="#FFFFFF" height="30" style="stroke:#181818;stroke-width:1.0;" width="10" x="932.5" y="420.9531"/><rect fill="#FFFFFF" height="30" style="stroke:#181818;stroke-width:1.0;" width="10" x="1030.5" y="1121.875"/><rect fill="#FFFFFF" height="30" style="stroke:#181818;stroke-width:1.0;" width="10" x="1131.5" y="667.0625"/><rect fill="#FFFFFF" height="30" style="stroke:#181818;stroke-width:1.0;" width="10" x="1131.5" y="727.4141"/><rect fill="#FFFFFF" height="30" style="stroke:#181818;stroke-width:1.0;" width="10" x="1131.5" y="787.7656"/><rect fill="#FFFFFF" height="30" style="stroke:#181818;stroke-width:1.0;" width="10" x="1131.5" y="848.1172"/><rect fill="#FFFFFF" height="30" style="stroke:#181818;stroke-width:1.0;" width="10" x="1131.5" y="908.4688"/><rect fill="#FFFFFF" height="30" style="stroke:#181818;stroke-width:1.0;" width="10" x="1131.5" y="968.8203"/><rect fill="#FFFFFF" height="30" style="stroke:#181818;stroke-width:1.0;" width="10" x="1223" y="1054.5234"/><rect fill="#FFFFFF" height="30.3516" style="stroke:#181818;stroke-width:1.0;" width="10" x="1311.5" y="506.6563"/><rect fill="#FFFFFF" height="30" style="stroke:#181818;stroke-width:1.0;" width="10" x="1389.5" y="599.7109"/><rect fill="none" height="79.0547" style="stroke:#000000;stroke-width:1.5;" width="781.5" x="579" y="465.9531"/><rect fill="none" height="78.7031" style="stroke:#000000;stroke-width:1.5;" width="859.5" x="579" y="559.0078"/><rect fill="none" height="78.7031" style="stroke:#000000;stroke-width:1.5;" width="703.5" x="579" y="1013.8203"/><line style="stroke:#181818;stroke-width:0.5;stroke-dasharray:5.0,5.0;" x1="110" x2="110" y1="55.2188" y2="1260.9297"/><line style="stroke:#181818;stroke-width:0.5;stroke-dasharray:5.0,5.0;" x1="270" x2="270" y1="135.6797" y2="1260.9297"/><line style="stroke:#181818;stroke-width:0.5;stroke-dasharray:5.0,5.0;" x1="400" x2="400" y1="55.2188" y2="1260.9297"/><line style="stroke:#181818;stroke-width:0.5;stroke-dasharray:5.0,5.0;" x1="665" x2="665" y1="55.2188" y2="1260.9297"/><line style="stroke:#181818;stroke-width:0.5;stroke-dasharray:5.0,5.0;" x1="844.5" x2="844.5" y1="55.2188" y2="1260.9297"/><line style="stroke:#181818;stroke-width:0.5;stroke-dasharray:5.0,5.0;" x1="937.5" x2="937.5" y1="55.2188" y2="1260.9297"/><line style="stroke:#181818;stroke-width:0.5;stroke-dasharray:5.0,5.0;" x1="1035.5" x2="1035.5" y1="55.2188" y2="1260.9297"/><line style="stroke:#181818;stroke-width:0.5;stroke-dasharray:5.0,5.0;" x1="1136.5" x2="1136.5" y1="55.2188" y2="1260.9297"/><line style="stroke:#181818;stroke-width:0.5;stroke-dasharray:5.0,5.0;" x1="1227.5" x2="1227.5" y1="55.2188" y2="1260.9297"/><line style="stroke:#181818;stroke-width:0.5;stroke-dasharray:5.0,5.0;" x1="1316.5" x2="1316.5" y1="55.2188" y2="1260.9297"/><line style="stroke:#181818;stroke-width:0.5;stroke-dasharray:5.0,5.0;" x1="1394.5" x2="1394.5" y1="55.2188" y2="1260.9297"/><rect fill="#E2E2F0" height="49.2188" rx="2.5" ry="2.5" style="stroke:#181818;stroke-width:0.5;" width="112" x="54" y="5"/><text fill="#000000" font-family="sans-serif" font-size="14" lengthAdjust="spacing" textLength="37" x="89.5" y="26.5332">route:</text><text fill="#000000" font-family="sans-serif" font-size="14" lengthAdjust="spacing" textLength="94" x="65" y="44.1426">ElevadorRoute</text><rect fill="#E2E2F0" height="49.2188" rx="2.5" ry="2.5" style="stroke:#181818;stroke-width:0.5;" width="112" x="54" y="1259.9297"/><text fill="#000000" font-family="sans-serif" font-size="14" lengthAdjust="spacing" textLength="37" x="89.5" y="1281.4629">route:</text><text fill="#000000" font-family="sans-serif" font-size="14" lengthAdjust="spacing" textLength="94" x="65" y="1299.0723">ElevadorRoute</text><rect fill="#E2E2F0" height="49.2188" rx="2.5" ry="2.5" style="stroke:#181818;stroke-width:0.5;" width="104" x="218" y="1259.9297"/><text fill="#000000" font-family="sans-serif" font-size="14" lengthAdjust="spacing" textLength="24" x="256" y="1281.4629">dto:</text><text fill="#000000" font-family="sans-serif" font-size="14" lengthAdjust="spacing" textLength="86" x="229" y="1299.0723">ElevadorDTO</text><rect fill="#E2E2F0" height="49.2188" rx="2.5" ry="2.5" style="stroke:#181818;stroke-width:0.5;" width="136" x="332" y="5"/><text fill="#000000" font-family="sans-serif" font-size="14" lengthAdjust="spacing" textLength="63" x="366.5" y="26.5332">controller:</text><text fill="#000000" font-family="sans-serif" font-size="14" lengthAdjust="spacing" textLength="118" x="343" y="44.1426">ElevadorController</text><rect fill="#E2E2F0" height="49.2188" rx="2.5" ry="2.5" style="stroke:#181818;stroke-width:0.5;" width="136" x="332" y="1259.9297"/><text fill="#000000" font-family="sans-serif" font-size="14" lengthAdjust="spacing" textLength="63" x="366.5" y="1281.4629">controller:</text><text fill="#000000" font-family="sans-serif" font-size="14" lengthAdjust="spacing" textLength="118" x="343" y="1299.0723">ElevadorController</text><rect fill="#E2E2F0" height="49.2188" rx="2.5" ry="2.5" style="stroke:#181818;stroke-width:0.5;" width="152" x="589" y="5"/><text fill="#000000" font-family="sans-serif" font-size="14" lengthAdjust="spacing" textLength="49" x="638.5" y="26.5332">service:</text><text fill="#000000" font-family="sans-serif" font-size="14" lengthAdjust="spacing" textLength="134" x="600" y="44.1426">CriarElevadorService</text><rect fill="#E2E2F0" height="49.2188" rx="2.5" ry="2.5" style="stroke:#181818;stroke-width:0.5;" width="152" x="589" y="1259.9297"/><text fill="#000000" font-family="sans-serif" font-size="14" lengthAdjust="spacing" textLength="49" x="638.5" y="1281.4629">service:</text><text fill="#000000" font-family="sans-serif" font-size="14" lengthAdjust="spacing" textLength="134" x="600" y="1299.0723">CriarElevadorService</text><rect fill="#E2E2F0" height="49.2188" rx="2.5" ry="2.5" style="stroke:#181818;stroke-width:0.5;" width="97" x="796.5" y="5"/><text fill="#000000" font-family="sans-serif" font-size="14" lengthAdjust="spacing" textLength="33" x="826.5" y="26.5332">repo:</text><text fill="#000000" font-family="sans-serif" font-size="14" lengthAdjust="spacing" textLength="79" x="807.5" y="44.1426">EdificioRepo</text><rect fill="#E2E2F0" height="49.2188" rx="2.5" ry="2.5" style="stroke:#181818;stroke-width:0.5;" width="97" x="796.5" y="1259.9297"/><text fill="#000000" font-family="sans-serif" font-size="14" lengthAdjust="spacing" textLength="33" x="826.5" y="1281.4629">repo:</text><text fill="#000000" font-family="sans-serif" font-size="14" lengthAdjust="spacing" textLength="79" x="807.5" y="1299.0723">EdificioRepo</text><rect fill="#E2E2F0" height="49.2188" rx="2.5" ry="2.5" style="stroke:#181818;stroke-width:0.5;" width="68" x="903.5" y="5"/><text fill="#000000" font-family="sans-serif" font-size="14" lengthAdjust="spacing" textLength="50" x="910.5" y="26.5332">domain:</text><text fill="#000000" font-family="sans-serif" font-size="14" lengthAdjust="spacing" textLength="45" x="917" y="44.1426">Edificio</text><rect fill="#E2E2F0" height="49.2188" rx="2.5" ry="2.5" style="stroke:#181818;stroke-width:0.5;" width="68" x="903.5" y="1259.9297"/><text fill="#000000" font-family="sans-serif" font-size="14" lengthAdjust="spacing" textLength="50" x="910.5" y="1281.4629">domain:</text><text fill="#000000" font-family="sans-serif" font-size="14" lengthAdjust="spacing" textLength="45" x="917" y="1299.0723">Edificio</text><rect fill="#E2E2F0" height="49.2188" rx="2.5" ry="2.5" style="stroke:#181818;stroke-width:0.5;" width="108" x="981.5" y="5"/><text fill="#000000" font-family="sans-serif" font-size="14" lengthAdjust="spacing" textLength="33" x="1017" y="26.5332">repo:</text><text fill="#000000" font-family="sans-serif" font-size="14" lengthAdjust="spacing" textLength="90" x="992.5" y="44.1426">ElevadorRepo</text><rect fill="#E2E2F0" height="49.2188" rx="2.5" ry="2.5" style="stroke:#181818;stroke-width:0.5;" width="108" x="981.5" y="1259.9297"/><text fill="#000000" font-family="sans-serif" font-size="14" lengthAdjust="spacing" textLength="33" x="1017" y="1281.4629">repo:</text><text fill="#000000" font-family="sans-serif" font-size="14" lengthAdjust="spacing" textLength="90" x="992.5" y="1299.0723">ElevadorRepo</text><rect fill="#E2E2F0" height="49.2188" rx="2.5" ry="2.5" style="stroke:#181818;stroke-width:0.5;" width="74" x="1099.5" y="5"/><text fill="#000000" font-family="sans-serif" font-size="14" lengthAdjust="spacing" textLength="50" x="1109.5" y="26.5332">domain:</text><text fill="#000000" font-family="sans-serif" font-size="14" lengthAdjust="spacing" textLength="56" x="1110.5" y="44.1426">Elevador</text><rect fill="#E2E2F0" height="49.2188" rx="2.5" ry="2.5" style="stroke:#181818;stroke-width:0.5;" width="74" x="1099.5" y="1259.9297"/><text fill="#000000" font-family="sans-serif" font-size="14" lengthAdjust="spacing" textLength="50" x="1109.5" y="1281.4629">domain:</text><text fill="#000000" font-family="sans-serif" font-size="14" lengthAdjust="spacing" textLength="56" x="1110.5" y="1299.0723">Elevador</text><rect fill="#E2E2F0" height="49.2188" rx="2.5" ry="2.5" style="stroke:#181818;stroke-width:0.5;" width="89" x="1183.5" y="5"/><text fill="#000000" font-family="sans-serif" font-size="14" lengthAdjust="spacing" textLength="33" x="1209.5" y="26.5332">repo:</text><text fill="#000000" font-family="sans-serif" font-size="14" lengthAdjust="spacing" textLength="71" x="1194.5" y="44.1426">PontoRepo</text><rect fill="#E2E2F0" height="49.2188" rx="2.5" ry="2.5" style="stroke:#181818;stroke-width:0.5;" width="89" x="1183.5" y="1259.9297"/><text fill="#000000" font-family="sans-serif" font-size="14" lengthAdjust="spacing" textLength="33" x="1209.5" y="1281.4629">repo:</text><text fill="#000000" font-family="sans-serif" font-size="14" lengthAdjust="spacing" textLength="71" x="1194.5" y="1299.0723">PontoRepo</text><rect fill="#E2E2F0" height="49.2188" rx="2.5" ry="2.5" style="stroke:#181818;stroke-width:0.5;" width="68" x="1282.5" y="5"/><text fill="#000000" font-family="sans-serif" font-size="14" lengthAdjust="spacing" textLength="50" x="1289.5" y="26.5332">domain:</text><text fill="#000000" font-family="sans-serif" font-size="14" lengthAdjust="spacing" textLength="27" x="1305" y="44.1426">Piso</text><rect fill="#E2E2F0" height="49.2188" rx="2.5" ry="2.5" style="stroke:#181818;stroke-width:0.5;" width="68" x="1282.5" y="1259.9297"/><text fill="#000000" font-family="sans-serif" font-size="14" lengthAdjust="spacing" textLength="50" x="1289.5" y="1281.4629">domain:</text><text fill="#000000" font-family="sans-serif" font-size="14" lengthAdjust="spacing" textLength="27" x="1305" y="1299.0723">Piso</text><rect fill="#E2E2F0" height="49.2188" rx="2.5" ry="2.5" style="stroke:#181818;stroke-width:0.5;" width="68" x="1360.5" y="5"/><text fill="#000000" font-family="sans-serif" font-size="14" lengthAdjust="spacing" textLength="50" x="1367.5" y="26.5332">domain:</text><text fill="#000000" font-family="sans-serif" font-size="14" lengthAdjust="spacing" textLength="37" x="1378" y="44.1426">Ponto</text><rect fill="#E2E2F0" height="49.2188" rx="2.5" ry="2.5" style="stroke:#181818;stroke-width:0.5;" width="68" x="1360.5" y="1259.9297"/><text fill="#000000" font-family="sans-serif" font-size="14" lengthAdjust="spacing" textLength="50" x="1367.5" y="1281.4629">domain:</text><text fill="#000000" font-family="sans-serif" font-size="14" lengthAdjust="spacing" textLength="37" x="1378" y="1299.0723">Ponto</text><rect fill="#FFFFFF" height="1155.3594" style="stroke:#181818;stroke-width:1.0;" width="10" x="105" y="87.5703"/><rect fill="#FFFFFF" height="1034.4375" style="stroke:#181818;stroke-width:1.0;" width="10" x="395" y="178.1406"/><rect fill="#FFFFFF" height="973.7344" style="stroke:#181818;stroke-width:1.0;" width="10" x="660" y="208.4922"/><rect fill="#FFFFFF" height="30.3516" style="stroke:#181818;stroke-width:1.0;" width="10" x="840" y="238.8438"/><rect fill="#FFFFFF" height="30.3516" style="stroke:#181818;stroke-width:1.0;" width="10" x="932.5" y="299.5469"/><rect fill="#FFFFFF" height="30.3516" style="stroke:#181818;stroke-width:1.0;" width="10" x="932.5" y="360.25"/><rect fill="#FFFFFF" height="30" style="stroke:#181818;stroke-width:1.0;" width="10" x="932.5" y="420.9531"/><rect fill="#FFFFFF" height="30" style="stroke:#181818;stroke-width:1.0;" width="10" x="1030.5" y="1121.875"/><rect fill="#FFFFFF" height="30" style="stroke:#181818;stroke-width:1.0;" width="10" x="1131.5" y="667.0625"/><rect fill="#FFFFFF" height="30" style="stroke:#181818;stroke-width:1.0;" width="10" x="1131.5" y="727.4141"/><rect fill="#FFFFFF" height="30" style="stroke:#181818;stroke-width:1.0;" width="10" x="1131.5" y="787.7656"/><rect fill="#FFFFFF" height="30" style="stroke:#181818;stroke-width:1.0;" width="10" x="1131.5" y="848.1172"/><rect fill="#FFFFFF" height="30" style="stroke:#181818;stroke-width:1.0;" width="10" x="1131.5" y="908.4688"/><rect fill="#FFFFFF" height="30" style="stroke:#181818;stroke-width:1.0;" width="10" x="1131.5" y="968.8203"/><rect fill="#FFFFFF" height="30" style="stroke:#181818;stroke-width:1.0;" width="10" x="1223" y="1054.5234"/><rect fill="#FFFFFF" height="30.3516" style="stroke:#181818;stroke-width:1.0;" width="10" x="1311.5" y="506.6563"/><rect fill="#FFFFFF" height="30" style="stroke:#181818;stroke-width:1.0;" width="10" x="1389.5" y="599.7109"/><ellipse cx="7.5" cy="86.8203" fill="none" rx="4" ry="4" style="stroke:#181818;stroke-width:1.5;"/><polygon fill="#181818" points="93,83.5703,103,87.5703,93,91.5703,97,87.5703" style="stroke:#181818;stroke-width:1.0;"/><line style="stroke:#181818;stroke-width:1.0;" x1="12" x2="99" y1="87.5703" y2="87.5703"/><text fill="#000000" font-family="sans-serif" font-size="13" font-weight="bold" lengthAdjust="spacing" textLength="7" x="15" y="82.7139">1</text><text fill="#000000" font-family="sans-serif" font-size="13" lengthAdjust="spacing" textLength="67" x="26" y="82.7139">POST(json)</text><polygon fill="#181818" points="206,113.9219,216,117.9219,206,121.9219,210,117.9219" style="stroke:#181818;stroke-width:1.0;"/><line style="stroke:#181818;stroke-width:1.0;" x1="115" x2="212" y1="117.9219" y2="117.9219"/><text fill="#000000" font-family="sans-serif" font-size="13" font-weight="bold" lengthAdjust="spacing" textLength="7" x="122" y="113.0654">2</text><text fill="#000000" font-family="sans-serif" font-size="13" lengthAdjust="spacing" textLength="68" x="133" y="113.0654">create(json)</text><rect fill="#E2E2F0" height="49.2188" rx="2.5" ry="2.5" style="stroke:#181818;stroke-width:0.5;" width="104" x="218" y="95.5703"/><text fill="#000000" font-family="sans-serif" font-size="14" lengthAdjust="spacing" textLength="24" x="256" y="117.1035">dto:</text><text fill="#000000" font-family="sans-serif" font-size="14" lengthAdjust="spacing" textLength="86" x="229" y="134.7129">ElevadorDTO</text><polygon fill="#181818" points="383,174.1406,393,178.1406,383,182.1406,387,178.1406" style="stroke:#181818;stroke-width:1.0;"/><line style="stroke:#181818;stroke-width:1.0;" x1="115" x2="389" y1="178.1406" y2="178.1406"/><text fill="#000000" font-family="sans-serif" font-size="13" font-weight="bold" lengthAdjust="spacing" textLength="7" x="122" y="173.2842">3</text><text fill="#000000" font-family="sans-serif" font-size="13" lengthAdjust="spacing" textLength="225" x="133" y="173.2842">editarElevador(idElevador,elevadorDTO)</text><polygon fill="#181818" points="648,204.4922,658,208.4922,648,212.4922,652,208.4922" style="stroke:#181818;stroke-width:1.0;"/><line style="stroke:#181818;stroke-width:1.0;" x1="405" x2="654" y1="208.4922" y2="208.4922"/><text fill="#000000" font-family="sans-serif" font-size="13" font-weight="bold" lengthAdjust="spacing" textLength="7" x="412" y="203.6357">4</text><text fill="#000000" font-family="sans-serif" font-size="13" lengthAdjust="spacing" textLength="225" x="423" y="203.6357">editarElevador(idElevador,elevadorDTO)</text><polygon fill="#181818" points="828,234.8438,838,238.8438,828,242.8438,832,238.8438" style="stroke:#181818;stroke-width:1.0;"/><line style="stroke:#181818;stroke-width:1.0;" x1="670" x2="834" y1="238.8438" y2="238.8438"/><text fill="#000000" font-family="sans-serif" font-size="13" font-weight="bold" lengthAdjust="spacing" textLength="7" x="677" y="233.9873">5</text><text fill="#000000" font-family="sans-serif" font-size="13" lengthAdjust="spacing" textLength="140" x="688" y="233.9873">findByDomain(idEdificio)</text><polygon fill="#181818" points="681,265.1953,671,269.1953,681,273.1953,677,269.1953" style="stroke:#181818;stroke-width:1.0;"/><line style="stroke:#181818;stroke-width:1.0;stroke-dasharray:2.0,2.0;" x1="675" x2="844" y1="269.1953" y2="269.1953"/><text fill="#000000" font-family="sans-serif" font-size="13" font-weight="bold" lengthAdjust="spacing" textLength="7" x="687" y="264.3389">6</text><text fill="#000000" font-family="sans-serif" font-size="13" lengthAdjust="spacing" textLength="40" x="698" y="264.3389">edificio</text><polygon fill="#181818" points="920.5,295.5469,930.5,299.5469,920.5,303.5469,924.5,299.5469" style="stroke:#181818;stroke-width:1.0;"/><line style="stroke:#181818;stroke-width:1.0;" x1="670" x2="926.5" y1="299.5469" y2="299.5469"/><text fill="#000000" font-family="sans-serif" font-size="13" font-weight="bold" lengthAdjust="spacing" textLength="7" x="677" y="294.6904">7</text><text fill="#000000" font-family="sans-serif" font-size="13" lengthAdjust="spacing" textLength="90" x="688" y="294.6904">returnElevador()</text><polygon fill="#181818" points="681,325.8984,671,329.8984,681,333.8984,677,329.8984" style="stroke:#181818;stroke-width:1.0;"/><line style="stroke:#181818;stroke-width:1.0;stroke-dasharray:2.0,2.0;" x1="675" x2="936.5" y1="329.8984" y2="329.8984"/><text fill="#000000" font-family="sans-serif" font-size="13" font-weight="bold" lengthAdjust="spacing" textLength="7" x="687" y="325.042">8</text><text fill="#000000" font-family="sans-serif" font-size="13" lengthAdjust="spacing" textLength="47" x="698" y="325.042">elevador</text><polygon fill="#181818" points="920.5,356.25,930.5,360.25,920.5,364.25,924.5,360.25" style="stroke:#181818;stroke-width:1.0;"/><line style="stroke:#181818;stroke-width:1.0;" x1="670" x2="926.5" y1="360.25" y2="360.25"/><text fill="#000000" font-family="sans-serif" font-size="13" font-weight="bold" lengthAdjust="spacing" textLength="7" x="677" y="355.3936">9</text><text fill="#000000" font-family="sans-serif" font-size="13" lengthAdjust="spacing" textLength="182" x="688" y="355.3936">posicaoValidaNoMapa(posicao)</text><polygon fill="#181818" points="681,386.6016,671,390.6016,681,394.6016,677,390.6016" style="stroke:#181818;stroke-width:1.0;"/><line style="stroke:#181818;stroke-width:1.0;stroke-dasharray:2.0,2.0;" x1="675" x2="936.5" y1="390.6016" y2="390.6016"/><text fill="#000000" font-family="sans-serif" font-size="13" font-weight="bold" lengthAdjust="spacing" textLength="14" x="687" y="385.7451">10</text><text fill="#000000" font-family="sans-serif" font-size="13" lengthAdjust="spacing" textLength="45" x="705" y="385.7451">boolean</text><polygon fill="#181818" points="920.5,416.9531,930.5,420.9531,920.5,424.9531,924.5,420.9531" style="stroke:#181818;stroke-width:1.0;"/><line style="stroke:#181818;stroke-width:1.0;" x1="670" x2="926.5" y1="420.9531" y2="420.9531"/><text fill="#000000" font-family="sans-serif" font-size="13" font-weight="bold" lengthAdjust="spacing" textLength="14" x="677" y="416.0967">11</text><text fill="#000000" font-family="sans-serif" font-size="13" lengthAdjust="spacing" textLength="139" x="695" y="416.0967">reverterMapa(listaPisos)</text><path d="M579,465.9531 L652,465.9531 L652,474.3047 L642,484.3047 L579,484.3047 L579,465.9531 " fill="#EEEEEE" style="stroke:#000000;stroke-width:1.5;"/><rect fill="none" height="79.0547" style="stroke:#000000;stroke-width:1.5;" width="781.5" x="579" y="465.9531"/><text fill="#000000" font-family="sans-serif" font-size="13" font-weight="bold" lengthAdjust="spacing" textLength="28" x="594" y="480.4482">loop</text><text fill="#000000" font-family="sans-serif" font-size="11" font-weight="bold" lengthAdjust="spacing" textLength="87" x="667" y="479.3721">[para cada piso]</text><polygon fill="#181818" points="1299.5,502.6563,1309.5,506.6563,1299.5,510.6563,1303.5,506.6563" style="stroke:#181818;stroke-width:1.0;"/><line style="stroke:#181818;stroke-width:1.0;" x1="670" x2="1305.5" y1="506.6563" y2="506.6563"/><text fill="#000000" font-family="sans-serif" font-size="13" font-weight="bold" lengthAdjust="spacing" textLength="14" x="677" y="501.7998">12</text><text fill="#000000" font-family="sans-serif" font-size="13" lengthAdjust="spacing" textLength="205" x="695" y="501.7998">pontosParaElevador(x,y,orientacao)</text><polygon fill="#181818" points="681,533.0078,671,537.0078,681,541.0078,677,537.0078" style="stroke:#181818;stroke-width:1.0;"/><line style="stroke:#181818;stroke-width:1.0;stroke-dasharray:2.0,2.0;" x1="675" x2="1315.5" y1="537.0078" y2="537.0078"/><text fill="#000000" font-family="sans-serif" font-size="13" font-weight="bold" lengthAdjust="spacing" textLength="14" x="687" y="532.1514">13</text><text fill="#000000" font-family="sans-serif" font-size="13" lengthAdjust="spacing" textLength="65" x="705" y="532.1514">listaPontos</text><path d="M579,559.0078 L652,559.0078 L652,567.3594 L642,577.3594 L579,577.3594 L579,559.0078 " fill="#EEEEEE" style="stroke:#000000;stroke-width:1.5;"/><rect fill="none" height="78.7031" style="stroke:#000000;stroke-width:1.5;" width="859.5" x="579" y="559.0078"/><text fill="#000000" font-family="sans-serif" font-size="13" font-weight="bold" lengthAdjust="spacing" textLength="28" x="594" y="573.5029">loop</text><text fill="#000000" font-family="sans-serif" font-size="11" font-weight="bold" lengthAdjust="spacing" textLength="95" x="667" y="572.4268">[para cada ponto]</text><polygon fill="#181818" points="1377.5,595.7109,1387.5,599.7109,1377.5,603.7109,1381.5,599.7109" style="stroke:#181818;stroke-width:1.0;"/><line style="stroke:#181818;stroke-width:1.0;" x1="670" x2="1383.5" y1="599.7109" y2="599.7109"/><text fill="#000000" font-family="sans-serif" font-size="13" font-weight="bold" lengthAdjust="spacing" textLength="14" x="677" y="594.8545">14</text><text fill="#000000" font-family="sans-serif" font-size="13" lengthAdjust="spacing" textLength="68" x="695" y="594.8545">toElevador()</text><polygon fill="#181818" points="1119.5,663.0625,1129.5,667.0625,1119.5,671.0625,1123.5,667.0625" style="stroke:#181818;stroke-width:1.0;"/><line style="stroke:#181818;stroke-width:1.0;" x1="670" x2="1125.5" y1="667.0625" y2="667.0625"/><text fill="#000000" font-family="sans-serif" font-size="13" font-weight="bold" lengthAdjust="spacing" textLength="14" x="677" y="662.2061">15</text><text fill="#000000" font-family="sans-serif" font-size="13" lengthAdjust="spacing" textLength="90" x="695" y="662.2061">atualizarPisos()</text><polygon fill="#181818" points="1119.5,723.4141,1129.5,727.4141,1119.5,731.4141,1123.5,727.4141" style="stroke:#181818;stroke-width:1.0;"/><line style="stroke:#181818;stroke-width:1.0;" x1="670" x2="1125.5" y1="727.4141" y2="727.4141"/><text fill="#000000" font-family="sans-serif" font-size="13" font-weight="bold" lengthAdjust="spacing" textLength="14" x="677" y="722.5576">16</text><text fill="#000000" font-family="sans-serif" font-size="13" lengthAdjust="spacing" textLength="98" x="695" y="722.5576">atualizarPontos()</text><polygon fill="#181818" points="1119.5,783.7656,1129.5,787.7656,1119.5,791.7656,1123.5,787.7656" style="stroke:#181818;stroke-width:1.0;"/><line style="stroke:#181818;stroke-width:1.0;" x1="670" x2="1125.5" y1="787.7656" y2="787.7656"/><text fill="#000000" font-family="sans-serif" font-size="13" font-weight="bold" lengthAdjust="spacing" textLength="14" x="677" y="782.9092">17</text><text fill="#000000" font-family="sans-serif" font-size="13" lengthAdjust="spacing" textLength="93" x="695" y="782.9092">atualizarMarca()</text><polygon fill="#181818" points="1119.5,844.1172,1129.5,848.1172,1119.5,852.1172,1123.5,848.1172" style="stroke:#181818;stroke-width:1.0;"/><line style="stroke:#181818;stroke-width:1.0;" x1="670" x2="1125.5" y1="848.1172" y2="848.1172"/><text fill="#000000" font-family="sans-serif" font-size="13" font-weight="bold" lengthAdjust="spacing" textLength="14" x="677" y="843.2607">18</text><text fill="#000000" font-family="sans-serif" font-size="13" lengthAdjust="spacing" textLength="99" x="695" y="843.2607">atualizarModelo()</text><polygon fill="#181818" points="1119.5,904.4688,1129.5,908.4688,1119.5,912.4688,1123.5,908.4688" style="stroke:#181818;stroke-width:1.0;"/><line style="stroke:#181818;stroke-width:1.0;" x1="670" x2="1125.5" y1="908.4688" y2="908.4688"/><text fill="#000000" font-family="sans-serif" font-size="13" font-weight="bold" lengthAdjust="spacing" textLength="14" x="677" y="903.6123">19</text><text fill="#000000" font-family="sans-serif" font-size="13" lengthAdjust="spacing" textLength="132" x="695" y="903.6123">atualizarNumeroSerie()</text><polygon fill="#181818" points="1119.5,964.8203,1129.5,968.8203,1119.5,972.8203,1123.5,968.8203" style="stroke:#181818;stroke-width:1.0;"/><line style="stroke:#181818;stroke-width:1.0;" x1="670" x2="1125.5" y1="968.8203" y2="968.8203"/><text fill="#000000" font-family="sans-serif" font-size="13" font-weight="bold" lengthAdjust="spacing" textLength="14" x="677" y="963.9639">20</text><text fill="#000000" font-family="sans-serif" font-size="13" lengthAdjust="spacing" textLength="115" x="695" y="963.9639">atualizarDescricao()</text><path d="M579,1013.8203 L652,1013.8203 L652,1022.1719 L642,1032.1719 L579,1032.1719 L579,1013.8203 " fill="#EEEEEE" style="stroke:#000000;stroke-width:1.5;"/><rect fill="none" height="78.7031" style="stroke:#000000;stroke-width:1.5;" width="703.5" x="579" y="1013.8203"/><text fill="#000000" font-family="sans-serif" font-size="13" font-weight="bold" lengthAdjust="spacing" textLength="28" x="594" y="1028.3154">loop</text><text fill="#000000" font-family="sans-serif" font-size="11" font-weight="bold" lengthAdjust="spacing" textLength="95" x="667" y="1027.2393">[para cada ponto]</text><polygon fill="#181818" points="1211,1050.5234,1221,1054.5234,1211,1058.5234,1215,1054.5234" style="stroke:#181818;stroke-width:1.0;"/><line style="stroke:#181818;stroke-width:1.0;" x1="670" x2="1217" y1="1054.5234" y2="1054.5234"/><text fill="#000000" font-family="sans-serif" font-size="13" font-weight="bold" lengthAdjust="spacing" textLength="14" x="677" y="1049.667">21</text><text fill="#000000" font-family="sans-serif" font-size="13" lengthAdjust="spacing" textLength="66" x="695" y="1049.667">save(ponto)</text><polygon fill="#181818" points="1018.5,1117.875,1028.5,1121.875,1018.5,1125.875,1022.5,1121.875" style="stroke:#181818;stroke-width:1.0;"/><line style="stroke:#181818;stroke-width:1.0;" x1="670" x2="1024.5" y1="1121.875" y2="1121.875"/><text fill="#000000" font-family="sans-serif" font-size="13" font-weight="bold" lengthAdjust="spacing" textLength="14" x="677" y="1117.0186">22</text><text fill="#000000" font-family="sans-serif" font-size="13" lengthAdjust="spacing" textLength="81" x="695" y="1117.0186">save(elevador)</text><polygon fill="#181818" points="416,1178.2266,406,1182.2266,416,1186.2266,412,1182.2266" style="stroke:#181818;stroke-width:1.0;"/><line style="stroke:#181818;stroke-width:1.0;stroke-dasharray:2.0,2.0;" x1="410" x2="664" y1="1182.2266" y2="1182.2266"/><text fill="#000000" font-family="sans-serif" font-size="13" font-weight="bold" lengthAdjust="spacing" textLength="14" x="422" y="1177.3701">23</text><text fill="#000000" font-family="sans-serif" font-size="13" lengthAdjust="spacing" textLength="50" x="440" y="1177.3701">resposta</text><polygon fill="#181818" points="126,1208.5781,116,1212.5781,126,1216.5781,122,1212.5781" style="stroke:#181818;stroke-width:1.0;"/><line style="stroke:#181818;stroke-width:1.0;stroke-dasharray:2.0,2.0;" x1="120" x2="399" y1="1212.5781" y2="1212.5781"/><text fill="#000000" font-family="sans-serif" font-size="13" font-weight="bold" lengthAdjust="spacing" textLength="14" x="132" y="1207.7217">24</text><text fill="#000000" font-family="sans-serif" font-size="13" lengthAdjust="spacing" textLength="50" x="150" y="1207.7217">resposta</text><polygon fill="#181818" points="16.5,1238.9297,6.5,1242.9297,16.5,1246.9297,12.5,1242.9297" style="stroke:#181818;stroke-width:1.0;"/><line style="stroke:#181818;stroke-width:1.0;stroke-dasharray:2.0,2.0;" x1="14.5" x2="109" y1="1242.9297" y2="1242.9297"/><text fill="#000000" font-family="sans-serif" font-size="13" font-weight="bold" lengthAdjust="spacing" textLength="14" x="17" y="1238.0732">25</text><text fill="#000000" font-family="sans-serif" font-size="13" lengthAdjust="spacing" textLength="43" x="35" y="1238.0732">reposta</text><!--MD5=[7c60840f9c00db9d3a33e53276d7bea3]
@startuml
autonumber

participant "route: \n ElevadorRoute" as route
participant "dto: \n ElevadorDTO" as dto
participant "controller: \n ElevadorController" as ctrl
participant "service: \n CriarElevadorService" as service
participant "repo: \n EdificioRepo" as edRepo
participant "domain: \n Edificio" as edificio
participant "repo: \n ElevadorRepo" as eleRepo
participant "domain: \n Elevador" as elevador
participant "repo: \n PontoRepo" as PontoRepo
participant "domain: \n Piso" as Piso
participant "domain: \n Ponto" as Ponto


[o-> route: POST(json)
activate route
route -> dto ** : create(json)
route -> ctrl: editarElevador(idElevador,elevadorDTO)
activate ctrl
ctrl -> service: editarElevador(idElevador,elevadorDTO) 
activate service
service -> edRepo: findByDomain(idEdificio)
activate edRepo
return edificio
service -> edificio: returnElevador()
activate edificio
return elevador

service -> edificio : posicaoValidaNoMapa(posicao)
activate edificio
return boolean

service -> edificio: reverterMapa(listaPisos)
activate edificio
deactivate edificio

loop para cada piso
service -> Piso : pontosParaElevador(x,y,orientacao)
activate Piso
return listaPontos
end loop

loop para cada ponto
service -> Ponto : toElevador()
activate Ponto
deactivate Ponto

end loop 

service -> elevador: atualizarPisos()
activate elevador
deactivate elevador

service -> elevador: atualizarPontos()
activate elevador
deactivate elevador

service -> elevador: atualizarMarca()
activate elevador
deactivate elevador

service -> elevador: atualizarModelo()
activate elevador
deactivate elevador

service -> elevador: atualizarNumeroSerie()
activate elevador
deactivate elevador

service -> elevador: atualizarDescricao()
activate elevador
deactivate elevador

loop para cada ponto
service -> PontoRepo : save(ponto)
activate PontoRepo
deactivate PontoRepo
end loop 

service -> eleRepo: save(elevador)
activate eleRepo
deactivate eleRepo

return resposta
return resposta
return reposta













@enduml

PlantUML version 1.2022.7(Mon Aug 22 18:01:30 BST 2022)
(GPL source distribution)
Java Runtime: OpenJDK Runtime Environment
JVM: OpenJDK 64-Bit Server VM
Default Encoding: Cp1252
Language: pt
Country: PT
--></g></svg>