<?xml version="1.0" encoding="UTF-8"?>
<!-- Do not edit this file with editors other than draw.io -->
<!DOCTYPE svg PUBLIC "-//W3C//DTD SVG 1.1//EN" "http://www.w3.org/Graphics/SVG/1.1/DTD/svg11.dtd">
<svg xmlns="http://www.w3.org/2000/svg" xmlns:xlink="http://www.w3.org/1999/xlink" version="1.1" width="918px" height="852px" viewBox="-0.5 -0.5 918 852" content="&lt;mxfile host=&quot;app.diagrams.net&quot; modified=&quot;2023-10-17T20:34:16.163Z&quot; agent=&quot;Mozilla/5.0 (Windows NT 10.0; Win64; x64) AppleWebKit/537.36 (KHTML, like Gecko) Chrome/118.0.0.0 Safari/537.36&quot; etag=&quot;fGinoYQhbZl7xAr23G4M&quot; version=&quot;22.0.4&quot; type=&quot;device&quot;&gt;&lt;diagram name=&quot;Page-1&quot; id=&quot;mcRJoiFZVbyGvoiC1dqz&quot;&gt;7V1bc6O4Ev41rtp9SApduD3G9mR3ztmtSU2m6uw8EiPHnGCLg8ltfv2RDMJIgoAJFzvOTNUMCBBG/XX3160WTNBs/fJH7EWrv6lPwgk0/JcJmk8gdB2X/csbXtMGYAE7bbmPAz9r2zfcBr9I1mhkrY+BT7bSiQmlYRJEcuOCbjZkkUhtXhzTZ/m0JQ3lu0bePdEabhdeqLf+J/CTVdrqmMa+/U8S3K/EnYGRHVl74uSsYbvyfPpcaEJfJmgWU5qkW+uXGQn54IlxSa+7rjia/7CYbJImFyRrE5Fv80387+hp9S14/tfD69cLmPby5IWP2QNPZnByNZ3RdUQ3vGe2O51OoBWym0zvYrZ1z7fY/946Yhuhvjejm8QLNoSdbPw2w7/nR+UrxZ7S89/z7/SOfr39cpONW/IqhLFK1iHbAuwsP6bRDy++J/zZDdbwvAoScht5C37uMwMja3sicRIwWV6Fwf2GNSeUty6DMJzRkMa7TpENZ+61zdq3SUwfSOGIsfuTHxHyh7ufvRs21j95qZQHyKXM1IPQNUniV3aKuADjSysb/0w7UAaV5z3SXGBeIidtXhWAZjvZuV4G8Pv8BnsMsI0MBgdAAumQUOXAoBzxzTX1H3nb9L8kSV7F+DiiIVcMXDbqC3dpNx3JauxWD682lEIRi8Mo2mISeknwJCt92dBm97uhAftt+c0uoC0J0pY7oMvllgFVlUz+o9sLC9cLq6A0MX3c+MTPNKZKDzrANjStS9uUhgTq2AbOpVktks6BbdaPFdn4V9xpsL0NM39sMCpHz8tsyoINCbN0VcaG9Xgd8N+5uyj07kg49RYP97vOxOhn92LnZg5wb2KIr/knRQjsAehjvCD1KEmEvaw6zyoXamPleJd4rAbiCUPm9xWxLJm3yYYNgDLBVOE84jq8ewpzOjHn/NJtlHKIZfDCBT2NyTb45d3t7g9KZHxHk4SuhWBv6DZIAlqKir+UEzJXxJ7nzxxeiZcdNLrSQtkqXeAyHdQ1ULR1LmJbE3HR2RtXN181kbOnT2R51yreOvD9nVcqSs8oF/hjwkTyS4hXZgCZVhbhkzV1IRvFPF4IuBdlU+axUF/mEehc8Dr21uSZxg9bfsONz/6dx8wQxHz/L++VM7wKasCJdqp9XD2z47sxZhQt2Nz/4PifAy6WxLsT1AFn+zlzADhtKGhOSJYKIlpTP8dYsj8d0TnbUV2eraubg8AlLHF6APQm1hI+t6P4iwYUP20RDd/pY8JEJ9rZz7nbn/tOqq4a6avZ9bXZkWRc2QzmY11UNVyiamZvMmlA27rg2AcN4hvoOXOSDXS/1VaFbpjtDLYJ2TDsn5ga2a4crB6BGjkno0b2pxpdAFcT11dO4ZYcwYz9+V6UfBhqsWDUYtERjwe2K0kMWqXEYkhWIbDYgUnk2cKYhiGX+GlZREYscjKXZ/DGNoriMY7fKBay4OdrFOEB6dYopk+BT/zv5H+PQUz8vfWUbFZVyiFPVmwfSLJYZTpTSDtcuKVpwUMStXUJCagqDCxRGDRk2AsbcPED0oLkJUj+yY7w7Z+8/dLM9uYvhdPmr4UdRgwD9kDcr6VtzCi+/rO/mO/+FP3ynX1Xuz3RV/rbO8kaCmjWpg2rgoSCSM03TOA7VdcUJkAgSnV66YNmV+3Rondkyx0BS+koHQito85MQbcJaoHEPfp+FsFXjsQcdUXMFSBYgbrdngrhLqFoNIQiHBWK0Ja9SGsoqh0Be2AodhfxficRd0GUj9tp0Ts14IXu6NzuZAJe+BnwskHQA96rKAoZN9sRLmhMH7fBhmx5yPudCWtbKcyTCHmXS4/97SfkxWZJyIsHDXlRScj7cZk61Jg6KjF/gzJ11CCyPU+mjioi6WFYD3Zl3oyNtqwHyYYaqY60Z9aDYLcA65JM79k8dKCEWMNwDsZsc+zVMm6h7vUgdccEqYotrGKrMUixAtKBo0R0Vgkjp8QNoZHd0GfC6E1ojpYHMrtyQ+7IbqikEq5l8D3/8e3Uom7TkMWIHKjp+7BRNypJhhxn1I0qCjjPKupGDZIkLezzBWdaWDbSzBW9w0xjJPNCAFCNre47zSosT32h8KgBh0rBsErB2nI5rNae923p9QRRW0svJ5ZuSfwUnF6JUcmEOnb0rMOw5l/c7ATMf0WEdVbmH/eTJTIubYAk628A+Lb1F5YeyGa+dfjfp+F3T8LwY6hkhcUU9aGGH4Gajno2/FjPNH3hsXkUB1teC/fRJgaI0VctnFWypmXgiQFc4sVHy8gAp+eUDDYtSQCmY2kCGDQfYzbwz+eZj8FNrfq4qVnTtNWVM6bbktEjA2t94WakngHEey2clq0Wq45CLJnhWIa0/p5tpD126jjMjtlNIRo1oMxTHNd930RF87Kj5pivJyh2Q+UwKyoUhsF8CU6t1pgHOubVtwP0zGfM7uqF5nTtBTyGFe8S+W0+n/9+apEsUuZErbIw1ipZe9tbGGueTO1QlWaeVRhrHZB16JtUjjLL52piHpRVWrqjvYqiSSG1djrL1eXYsIMYzERamq7s9R6DLl+39Hnx3ezX+YoJKTNpWNS3FGRkDyoifeZcOPmzFZJpODJRAHo47QwqJH32ubhC73wlBSzN6pW9sCt/Adww0jpgbrpvmtB34kl5WdroiSf76BNP9liZJwHL+vU6o0bh2JWNr2ljuYvGIbgykdxXzslVXPogOSe7QcVhm5yTMi9m106MdaQgHeJcpF2OPMPqmEiCDVbh2XZdWl84V3+wWOPZL84brL/8KCG3g2TLV1ZlN6wzbfL6vxbT9t05U4ywbLBcF9ZZrJ7rtRqbn3HdLDKUMiuj5bS9YypZooaVudXmp+u0na1nWfkC2HOOm2xb5u1lqaJBI1ynAW//MHbekQcfgpFXTzg9lWd9gKBJ4LL+fRtHZc1h2yIsleQ1fd/GcNZcKM+pRPjGEYJ1XOrhWDLGoHjL7cFgVTpq+kaOAcF6RAsDe3dr2jt/xnZrR78ocDy3VrEoaai1IkrKvrW3QnJHR+it+nl/1IfwVqOuTHUM0JETUjAI1ZKx8THYII3zYVana15IMOPRvFCHZXhe4k3yIrzTKr7Lqx9zuYy9hsw5meI757P4jg1CgxUdrdaQYUMqir4ELd7d0nZdWZfutOk64So0DeR3VfsM8aUobznU9Vqovq+ei6yFsy9WuElW+oxzzFCezsrf9lO0+GBIV+zqeU7p2w/nKyu1huEIZNUgcBrjK3qOCRUeow/UsJ/Qc7udpe39G3qdrsHu0IG6TSdu0wIlHSHvLghx1VrG/ANkQ3mzAyhx3GeashNFtbThLPvW3htUuXtV7ZbDDqeqB66X7Xe9Ya0mg6aVjqnKd6/JlrweXnWSzec35H4ugDmoOcjLpgt4vf1jOj9npuSo3+8UH7waq3ICGDqrfY9Red8nCkZbVy8mm2p1HpeL9/NjBGG+G1OaFE+PvWiVhrPoy/8B&lt;/diagram&gt;&lt;/mxfile&gt;" style="background-color: rgb(255, 255, 255);"><defs/><g><rect x="0.62" y="70" width="915.38" height="780" fill="#72c9f7" stroke="#000000" stroke-width="2" pointer-events="all"/><g transform="translate(-0.5 -0.5)"><switch><foreignObject pointer-events="none" width="100%" height="100%" requiredFeatures="http://www.w3.org/TR/SVG11/feature#Extensibility" style="overflow: visible; text-align: left;"><div xmlns="http://www.w3.org/1999/xhtml" style="display: flex; align-items: unsafe flex-start; justify-content: unsafe center; width: 913px; height: 1px; padding-top: 77px; margin-left: 2px;"><div data-drawio-colors="color: rgb(0, 0, 0); " style="box-sizing: border-box; font-size: 0px; text-align: center;"><div style="display: inline-block; font-size: 12px; font-family: Helvetica; color: rgb(0, 0, 0); line-height: 1.2; pointer-events: all; white-space: normal; overflow-wrap: normal;">«Component»<br />&lt;&lt;Container (C4)&gt;&gt;<br />MDRoboISEP</div></div></div></foreignObject><text x="458" y="89" fill="rgb(0, 0, 0)" font-family="Helvetica" font-size="12px" text-anchor="middle">«Component»...</text></switch></g><path d="M 893 77 L 909 77 L 909 97 L 893 97 L 893 93 L 889 93 L 889 89 L 893 89 L 893 85 L 889 85 L 889 81 L 893 81 Z" fill="#72c9f7" stroke="rgb(0, 0, 0)" stroke-miterlimit="10" pointer-events="all"/><path d="M 893 81 L 897 81 L 897 85 L 893 85 M 893 89 L 897 89 L 897 93 L 893 93" fill="none" stroke="rgb(0, 0, 0)" stroke-miterlimit="10" pointer-events="all"/><rect x="112.75" y="60" width="18.5" height="20" fill="#72c9f7" stroke="rgb(0, 0, 0)" pointer-events="all"/><path d="M 121.96 60 L 121.8 18" fill="none" stroke="rgb(0, 0, 0)" stroke-miterlimit="10" pointer-events="stroke"/><ellipse cx="122" cy="9" rx="9" ry="9" fill="#72c9f7" stroke="rgb(0, 0, 0)" transform="translate(122,0)scale(-1,1)translate(-122,0)" pointer-events="all"/><rect x="131" y="18" width="120" height="30" fill="none" stroke="none" pointer-events="all"/><g transform="translate(-0.5 -0.5)"><switch><foreignObject pointer-events="none" width="100%" height="100%" requiredFeatures="http://www.w3.org/TR/SVG11/feature#Extensibility" style="overflow: visible; text-align: left;"><div xmlns="http://www.w3.org/1999/xhtml" style="display: flex; align-items: unsafe center; justify-content: unsafe center; width: 1px; height: 1px; padding-top: 33px; margin-left: 191px;"><div data-drawio-colors="color: rgb(0, 0, 0); " style="box-sizing: border-box; font-size: 0px; text-align: center;"><div style="display: inline-block; font-size: 12px; font-family: Helvetica; color: rgb(0, 0, 0); line-height: 1.2; pointer-events: all; white-space: nowrap;">MDRoboISEP API</div></div></div></foreignObject><text x="191" y="37" fill="rgb(0, 0, 0)" font-family="Helvetica" font-size="12px" text-anchor="middle">MDRoboISEP API</text></switch></g><path d="M 34.75 124 L 34.75 110 L 74.75 110 L 74.75 124 M 34.75 124 L 866 124 L 866 220 L 34.75 220 Z" fill="#80ffff" stroke="rgb(0, 0, 0)" stroke-miterlimit="10" pointer-events="all"/><g transform="translate(-0.5 -0.5)"><switch><foreignObject pointer-events="none" width="100%" height="100%" requiredFeatures="http://www.w3.org/TR/SVG11/feature#Extensibility" style="overflow: visible; text-align: left;"><div xmlns="http://www.w3.org/1999/xhtml" style="display: flex; align-items: unsafe flex-start; justify-content: unsafe center; width: 829px; height: 1px; padding-top: 127px; margin-left: 36px;"><div data-drawio-colors="color: rgb(0, 0, 0); " style="box-sizing: border-box; font-size: 0px; text-align: center;"><div style="display: inline-block; font-size: 12px; font-family: Helvetica; color: rgb(0, 0, 0); line-height: 1.2; pointer-events: all; font-weight: bold; white-space: normal; overflow-wrap: normal;">Frameworks and Drivers Layer</div></div></div></foreignObject><text x="450" y="139" fill="rgb(0, 0, 0)" font-family="Helvetica" font-size="12px" text-anchor="middle" font-weight="bold">Frameworks and Drivers Layer</text></switch></g><rect x="53" y="150" width="140" height="50" fill="#7acff5" stroke="rgb(0, 0, 0)" pointer-events="all"/><g transform="translate(-0.5 -0.5)"><switch><foreignObject pointer-events="none" width="100%" height="100%" requiredFeatures="http://www.w3.org/TR/SVG11/feature#Extensibility" style="overflow: visible; text-align: left;"><div xmlns="http://www.w3.org/1999/xhtml" style="display: flex; align-items: unsafe center; justify-content: unsafe center; width: 138px; height: 1px; padding-top: 175px; margin-left: 54px;"><div data-drawio-colors="color: rgb(0, 0, 0); " style="box-sizing: border-box; font-size: 0px; text-align: center;"><div style="display: inline-block; font-size: 12px; font-family: Helvetica; color: rgb(0, 0, 0); line-height: 1.2; pointer-events: all; white-space: normal; overflow-wrap: normal;">«component»<br /><b>Routing</b></div></div></div></foreignObject><text x="123" y="179" fill="rgb(0, 0, 0)" font-family="Helvetica" font-size="12px" text-anchor="middle">«component»...</text></switch></g><path d="M 170 157 L 186 157 L 186 177 L 170 177 L 170 173 L 166 173 L 166 169 L 170 169 L 170 165 L 166 165 L 166 161 L 170 161 Z" fill="#7acff5" stroke="rgb(0, 0, 0)" stroke-miterlimit="10" pointer-events="all"/><path d="M 170 161 L 174 161 L 174 165 L 170 165 M 170 169 L 174 169 L 174 173 L 170 173" fill="none" stroke="rgb(0, 0, 0)" stroke-miterlimit="10" pointer-events="all"/><rect x="648" y="150" width="140" height="50" fill="#7acff5" stroke="rgb(0, 0, 0)" pointer-events="all"/><g transform="translate(-0.5 -0.5)"><switch><foreignObject pointer-events="none" width="100%" height="100%" requiredFeatures="http://www.w3.org/TR/SVG11/feature#Extensibility" style="overflow: visible; text-align: left;"><div xmlns="http://www.w3.org/1999/xhtml" style="display: flex; align-items: unsafe center; justify-content: unsafe center; width: 138px; height: 1px; padding-top: 175px; margin-left: 649px;"><div data-drawio-colors="color: rgb(0, 0, 0); " style="box-sizing: border-box; font-size: 0px; text-align: center;"><div style="display: inline-block; font-size: 12px; font-family: Helvetica; color: rgb(0, 0, 0); line-height: 1.2; pointer-events: all; white-space: normal; overflow-wrap: normal;">«component»<br /><b>Persistence</b></div></div></div></foreignObject><text x="718" y="179" fill="rgb(0, 0, 0)" font-family="Helvetica" font-size="12px" text-anchor="middle">«component»...</text></switch></g><path d="M 765 157 L 781 157 L 781 177 L 765 177 L 765 173 L 761 173 L 761 169 L 765 169 L 765 165 L 761 165 L 761 161 L 765 161 Z" fill="#7acff5" stroke="rgb(0, 0, 0)" stroke-miterlimit="10" pointer-events="all"/><path d="M 765 161 L 769 161 L 769 165 L 765 165 M 765 169 L 769 169 L 769 173 L 765 173" fill="none" stroke="rgb(0, 0, 0)" stroke-miterlimit="10" pointer-events="all"/><path d="M 35 314 L 35 300 L 75 300 L 75 314 M 35 314 L 866 314 L 866 410 L 35 410 Z" fill="#c0ffc0" stroke="rgb(0, 0, 0)" stroke-miterlimit="10" pointer-events="all"/><g transform="translate(-0.5 -0.5)"><switch><foreignObject pointer-events="none" width="100%" height="100%" requiredFeatures="http://www.w3.org/TR/SVG11/feature#Extensibility" style="overflow: visible; text-align: left;"><div xmlns="http://www.w3.org/1999/xhtml" style="display: flex; align-items: unsafe flex-start; justify-content: unsafe center; width: 829px; height: 1px; padding-top: 317px; margin-left: 36px;"><div data-drawio-colors="color: rgb(0, 0, 0); " style="box-sizing: border-box; font-size: 0px; text-align: center;"><div style="display: inline-block; font-size: 12px; font-family: Helvetica; color: rgb(0, 0, 0); line-height: 1.2; pointer-events: all; font-weight: bold; white-space: normal; overflow-wrap: normal;">Interface Adapters Layer</div></div></div></foreignObject><text x="451" y="329" fill="rgb(0, 0, 0)" font-family="Helvetica" font-size="12px" text-anchor="middle" font-weight="bold">Interface Adapters Layer</text></switch></g><rect x="53.25" y="340" width="140" height="50" fill="#7acff5" stroke="rgb(0, 0, 0)" pointer-events="all"/><g transform="translate(-0.5 -0.5)"><switch><foreignObject pointer-events="none" width="100%" height="100%" requiredFeatures="http://www.w3.org/TR/SVG11/feature#Extensibility" style="overflow: visible; text-align: left;"><div xmlns="http://www.w3.org/1999/xhtml" style="display: flex; align-items: unsafe center; justify-content: unsafe center; width: 138px; height: 1px; padding-top: 365px; margin-left: 54px;"><div data-drawio-colors="color: rgb(0, 0, 0); " style="box-sizing: border-box; font-size: 0px; text-align: center;"><div style="display: inline-block; font-size: 12px; font-family: Helvetica; color: rgb(0, 0, 0); line-height: 1.2; pointer-events: all; white-space: normal; overflow-wrap: normal;">«component»<br /><b>Controller</b></div></div></div></foreignObject><text x="123" y="369" fill="rgb(0, 0, 0)" font-family="Helvetica" font-size="12px" text-anchor="middle">«component»...</text></switch></g><path d="M 170.25 347 L 186.25 347 L 186.25 367 L 170.25 367 L 170.25 363 L 166.25 363 L 166.25 359 L 170.25 359 L 170.25 355 L 166.25 355 L 166.25 351 L 170.25 351 Z" fill="#7acff5" stroke="rgb(0, 0, 0)" stroke-miterlimit="10" pointer-events="all"/><path d="M 170.25 351 L 174.25 351 L 174.25 355 L 170.25 355 M 170.25 359 L 174.25 359 L 174.25 363 L 170.25 363" fill="none" stroke="rgb(0, 0, 0)" stroke-miterlimit="10" pointer-events="all"/><ellipse cx="120.25" cy="255" rx="12" ry="12" fill="#72c9f7" stroke="rgb(0, 0, 0)" transform="rotate(-90,123.25,255)" pointer-events="all"/><path d="M 123.25 240 Q 138.25 240 138.25 255 Q 138.25 270 123.25 270" fill="none" stroke="rgb(0, 0, 0)" stroke-miterlimit="10" transform="rotate(-90,123.25,255)" pointer-events="all"/><path d="M 123.25 240 L 123 200" fill="none" stroke="rgb(0, 0, 0)" stroke-miterlimit="10" pointer-events="stroke"/><path d="M 123.25 340 L 123.25 270" fill="none" stroke="rgb(0, 0, 0)" stroke-miterlimit="10" pointer-events="stroke"/><rect x="648" y="330" width="140" height="50" fill="#7acff5" stroke="rgb(0, 0, 0)" pointer-events="all"/><g transform="translate(-0.5 -0.5)"><switch><foreignObject pointer-events="none" width="100%" height="100%" requiredFeatures="http://www.w3.org/TR/SVG11/feature#Extensibility" style="overflow: visible; text-align: left;"><div xmlns="http://www.w3.org/1999/xhtml" style="display: flex; align-items: unsafe center; justify-content: unsafe center; width: 138px; height: 1px; padding-top: 355px; margin-left: 649px;"><div data-drawio-colors="color: rgb(0, 0, 0); " style="box-sizing: border-box; font-size: 0px; text-align: center;"><div style="display: inline-block; font-size: 12px; font-family: Helvetica; color: rgb(0, 0, 0); line-height: 1.2; pointer-events: all; white-space: normal; overflow-wrap: normal;">«component»<br /><b>Repository</b></div></div></div></foreignObject><text x="718" y="359" fill="rgb(0, 0, 0)" font-family="Helvetica" font-size="12px" text-anchor="middle">«component»...</text></switch></g><path d="M 765 337 L 781 337 L 781 357 L 765 357 L 765 353 L 761 353 L 761 349 L 765 349 L 765 345 L 761 345 L 761 341 L 765 341 Z" fill="#7acff5" stroke="rgb(0, 0, 0)" stroke-miterlimit="10" pointer-events="all"/><path d="M 765 341 L 769 341 L 769 345 L 765 345 M 765 349 L 769 349 L 769 353 L 765 353" fill="none" stroke="rgb(0, 0, 0)" stroke-miterlimit="10" pointer-events="all"/><path d="M 35 504 L 35 490 L 75 490 L 75 504 M 35 504 L 876 504 L 876 600 L 35 600 Z" fill="#ffafaf" stroke="rgb(0, 0, 0)" stroke-miterlimit="10" pointer-events="all"/><g transform="translate(-0.5 -0.5)"><switch><foreignObject pointer-events="none" width="100%" height="100%" requiredFeatures="http://www.w3.org/TR/SVG11/feature#Extensibility" style="overflow: visible; text-align: left;"><div xmlns="http://www.w3.org/1999/xhtml" style="display: flex; align-items: unsafe flex-start; justify-content: unsafe center; width: 839px; height: 1px; padding-top: 507px; margin-left: 36px;"><div data-drawio-colors="color: rgb(0, 0, 0); " style="box-sizing: border-box; font-size: 0px; text-align: center;"><div style="display: inline-block; font-size: 12px; font-family: Helvetica; color: rgb(0, 0, 0); line-height: 1.2; pointer-events: all; font-weight: bold; white-space: normal; overflow-wrap: normal;">Application Business Rules</div></div></div></foreignObject><text x="456" y="519" fill="rgb(0, 0, 0)" font-family="Helvetica" font-size="12px" text-anchor="middle" font-weight="bold">Application Business Rules</text></switch></g><ellipse cx="90.25" cy="445" rx="12" ry="12" fill="#72c9f7" stroke="rgb(0, 0, 0)" transform="rotate(-90,93.25,445)" pointer-events="all"/><path d="M 93.25 430 Q 108.25 430 108.25 445 Q 108.25 460 93.25 460" fill="none" stroke="rgb(0, 0, 0)" stroke-miterlimit="10" transform="rotate(-90,93.25,445)" pointer-events="all"/><path d="M 93.25 430 L 93 390" fill="none" stroke="rgb(0, 0, 0)" stroke-miterlimit="10" pointer-events="stroke"/><path d="M 92.73 520.4 L 93.25 460" fill="none" stroke="rgb(0, 0, 0)" stroke-miterlimit="10" pointer-events="stroke"/><ellipse cx="150.25" cy="448" rx="12" ry="12" fill="#72c9f7" stroke="rgb(0, 0, 0)" transform="rotate(-90,153.25,448)" pointer-events="all"/><path d="M 153.25 433 Q 168.25 433 168.25 448 Q 168.25 463 153.25 463" fill="none" stroke="rgb(0, 0, 0)" stroke-miterlimit="10" transform="rotate(-90,153.25,448)" pointer-events="all"/><path d="M 153.25 433 L 153 390" fill="none" stroke="rgb(0, 0, 0)" stroke-miterlimit="10" pointer-events="stroke"/><rect x="356" y="422" width="140" height="50" fill="#7acff5" stroke="rgb(0, 0, 0)" pointer-events="all"/><g transform="translate(-0.5 -0.5)"><switch><foreignObject pointer-events="none" width="100%" height="100%" requiredFeatures="http://www.w3.org/TR/SVG11/feature#Extensibility" style="overflow: visible; text-align: left;"><div xmlns="http://www.w3.org/1999/xhtml" style="display: flex; align-items: unsafe center; justify-content: unsafe center; width: 138px; height: 1px; padding-top: 447px; margin-left: 357px;"><div data-drawio-colors="color: rgb(0, 0, 0); " style="box-sizing: border-box; font-size: 0px; text-align: center;"><div style="display: inline-block; font-size: 12px; font-family: Helvetica; color: rgb(0, 0, 0); line-height: 1.2; pointer-events: all; white-space: normal; overflow-wrap: normal;">«component»<br /><b>DTO</b></div></div></div></foreignObject><text x="426" y="451" fill="rgb(0, 0, 0)" font-family="Helvetica" font-size="12px" text-anchor="middle">«component»...</text></switch></g><path d="M 473 429 L 489 429 L 489 449 L 473 449 L 473 445 L 469 445 L 469 441 L 473 441 L 473 437 L 469 437 L 469 433 L 473 433 Z" fill="#7acff5" stroke="rgb(0, 0, 0)" stroke-miterlimit="10" pointer-events="all"/><path d="M 473 433 L 477 433 L 477 437 L 473 437 M 473 441 L 477 441 L 477 445 L 473 445" fill="none" stroke="rgb(0, 0, 0)" stroke-miterlimit="10" pointer-events="all"/><path d="M 355.44 451.65 L 164.86 451.9" fill="none" stroke="rgb(0, 0, 0)" stroke-miterlimit="10" pointer-events="stroke"/><rect x="53.25" y="520" width="140" height="50" fill="#7acff5" stroke="rgb(0, 0, 0)" pointer-events="all"/><g transform="translate(-0.5 -0.5)"><switch><foreignObject pointer-events="none" width="100%" height="100%" requiredFeatures="http://www.w3.org/TR/SVG11/feature#Extensibility" style="overflow: visible; text-align: left;"><div xmlns="http://www.w3.org/1999/xhtml" style="display: flex; align-items: unsafe center; justify-content: unsafe center; width: 138px; height: 1px; padding-top: 545px; margin-left: 54px;"><div data-drawio-colors="color: rgb(0, 0, 0); " style="box-sizing: border-box; font-size: 0px; text-align: center;"><div style="display: inline-block; font-size: 12px; font-family: Helvetica; color: rgb(0, 0, 0); line-height: 1.2; pointer-events: all; white-space: normal; overflow-wrap: normal;">«component»<br /><b>Application Service</b></div></div></div></foreignObject><text x="123" y="549" fill="rgb(0, 0, 0)" font-family="Helvetica" font-size="12px" text-anchor="middle">«component»...</text></switch></g><path d="M 170.25 527 L 186.25 527 L 186.25 547 L 170.25 547 L 170.25 543 L 166.25 543 L 166.25 539 L 170.25 539 L 170.25 535 L 166.25 535 L 166.25 531 L 170.25 531 Z" fill="#7acff5" stroke="rgb(0, 0, 0)" stroke-miterlimit="10" pointer-events="all"/><path d="M 170.25 531 L 174.25 531 L 174.25 535 L 170.25 535 M 170.25 539 L 174.25 539 L 174.25 543 L 170.25 543" fill="none" stroke="rgb(0, 0, 0)" stroke-miterlimit="10" pointer-events="all"/><path d="M 153.07 520.6 L 153.25 469" fill="none" stroke="rgb(0, 0, 0)" stroke-miterlimit="10" pointer-events="stroke"/><path d="M 35 694 L 35 680 L 75 680 L 75 694 M 35 694 L 876 694 L 876 790 L 35 790 Z" fill="#ffe0c0" stroke="rgb(0, 0, 0)" stroke-miterlimit="10" pointer-events="all"/><g transform="translate(-0.5 -0.5)"><switch><foreignObject pointer-events="none" width="100%" height="100%" requiredFeatures="http://www.w3.org/TR/SVG11/feature#Extensibility" style="overflow: visible; text-align: left;"><div xmlns="http://www.w3.org/1999/xhtml" style="display: flex; align-items: unsafe flex-start; justify-content: unsafe center; width: 839px; height: 1px; padding-top: 697px; margin-left: 36px;"><div data-drawio-colors="color: rgb(0, 0, 0); " style="box-sizing: border-box; font-size: 0px; text-align: center;"><div style="display: inline-block; font-size: 12px; font-family: Helvetica; color: rgb(0, 0, 0); line-height: 1.2; pointer-events: all; font-weight: bold; white-space: normal; overflow-wrap: normal;">Enterprise Business Rules</div></div></div></foreignObject><text x="456" y="709" fill="rgb(0, 0, 0)" font-family="Helvetica" font-size="12px" text-anchor="middle" font-weight="bold">Enterprise Business Rules</text></switch></g><ellipse cx="324" cy="641" rx="12" ry="12" fill="#72c9f7" stroke="rgb(0, 0, 0)" transform="rotate(-180,327,641)" pointer-events="all"/><path d="M 327 626 Q 342 626 342 641 Q 342 656 327 656" fill="none" stroke="rgb(0, 0, 0)" stroke-miterlimit="10" transform="rotate(-180,327,641)" pointer-events="all"/><path d="M 312 641 L 123 640 L 123.25 570" fill="none" stroke="rgb(0, 0, 0)" stroke-miterlimit="10" pointer-events="stroke"/><path d="M 330 720 L 330.06 652.97" fill="none" stroke="rgb(0, 0, 0)" stroke-miterlimit="10" pointer-events="stroke"/><rect x="246" y="720" width="168" height="50" fill="#7acff5" stroke="rgb(0, 0, 0)" pointer-events="all"/><g transform="translate(-0.5 -0.5)"><switch><foreignObject pointer-events="none" width="100%" height="100%" requiredFeatures="http://www.w3.org/TR/SVG11/feature#Extensibility" style="overflow: visible; text-align: left;"><div xmlns="http://www.w3.org/1999/xhtml" style="display: flex; align-items: unsafe center; justify-content: unsafe center; width: 166px; height: 1px; padding-top: 745px; margin-left: 247px;"><div data-drawio-colors="color: rgb(0, 0, 0); " style="box-sizing: border-box; font-size: 0px; text-align: center;"><div style="display: inline-block; font-size: 12px; font-family: Helvetica; color: rgb(0, 0, 0); line-height: 1.2; pointer-events: all; white-space: normal; overflow-wrap: normal;">«component»<br /><b>Domain Model (DDD)</b></div></div></div></foreignObject><text x="330" y="749" fill="rgb(0, 0, 0)" font-family="Helvetica" font-size="12px" text-anchor="middle">«component»...</text></switch></g><path d="M 391 727 L 407 727 L 407 747 L 391 747 L 391 743 L 387 743 L 387 739 L 391 739 L 391 735 L 387 735 L 387 731 L 391 731 Z" fill="#7acff5" stroke="rgb(0, 0, 0)" stroke-miterlimit="10" pointer-events="all"/><path d="M 391 731 L 395 731 L 395 735 L 391 735 M 391 739 L 395 739 L 395 743 L 391 743" fill="none" stroke="rgb(0, 0, 0)" stroke-miterlimit="10" pointer-events="all"/><ellipse cx="150.25" cy="454" rx="12" ry="12" fill="#72c9f7" stroke="rgb(0, 0, 0)" transform="rotate(90,153.25,454)" pointer-events="all"/><path d="M 153.25 439 Q 168.25 439 168.25 454 Q 168.25 469 153.25 469" fill="none" stroke="rgb(0, 0, 0)" stroke-miterlimit="10" transform="rotate(90,153.25,454)" pointer-events="all"/><rect x="9.25" y="460" width="120" height="30" fill="none" stroke="none" pointer-events="all"/><g transform="translate(-0.5 -0.5)"><switch><foreignObject pointer-events="none" width="100%" height="100%" requiredFeatures="http://www.w3.org/TR/SVG11/feature#Extensibility" style="overflow: visible; text-align: left;"><div xmlns="http://www.w3.org/1999/xhtml" style="display: flex; align-items: unsafe center; justify-content: unsafe center; width: 1px; height: 1px; padding-top: 475px; margin-left: 69px;"><div data-drawio-colors="color: rgb(0, 0, 0); " style="box-sizing: border-box; font-size: 0px; text-align: center;"><div style="display: inline-block; font-size: 12px; font-family: Helvetica; color: rgb(0, 0, 0); line-height: 1.2; pointer-events: all; font-weight: bold; white-space: nowrap;">App Service API</div></div></div></foreignObject><text x="69" y="479" fill="rgb(0, 0, 0)" font-family="Helvetica" font-size="12px" text-anchor="middle" font-weight="bold">App Service API</text></switch></g><rect x="156" y="472" width="70" height="30" fill="none" stroke="none" pointer-events="all"/><g transform="translate(-0.5 -0.5)"><switch><foreignObject pointer-events="none" width="100%" height="100%" requiredFeatures="http://www.w3.org/TR/SVG11/feature#Extensibility" style="overflow: visible; text-align: left;"><div xmlns="http://www.w3.org/1999/xhtml" style="display: flex; align-items: unsafe center; justify-content: unsafe center; width: 1px; height: 1px; padding-top: 487px; margin-left: 191px;"><div data-drawio-colors="color: rgb(0, 0, 0); " style="box-sizing: border-box; font-size: 0px; text-align: center;"><div style="display: inline-block; font-size: 12px; font-family: Helvetica; color: rgb(0, 0, 0); line-height: 1.2; pointer-events: all; font-weight: bold; white-space: nowrap;">DTO API</div></div></div></foreignObject><text x="191" y="491" fill="rgb(0, 0, 0)" font-family="Helvetica" font-size="12px" text-anchor="middle" font-weight="bold">DTO API</text></switch></g><rect x="364" y="656" width="80" height="30" fill="none" stroke="none" pointer-events="all"/><g transform="translate(-0.5 -0.5)"><switch><foreignObject pointer-events="none" width="100%" height="100%" requiredFeatures="http://www.w3.org/TR/SVG11/feature#Extensibility" style="overflow: visible; text-align: left;"><div xmlns="http://www.w3.org/1999/xhtml" style="display: flex; align-items: unsafe center; justify-content: unsafe center; width: 1px; height: 1px; padding-top: 671px; margin-left: 404px;"><div data-drawio-colors="color: rgb(0, 0, 0); " style="box-sizing: border-box; font-size: 0px; text-align: center;"><div style="display: inline-block; font-size: 12px; font-family: Helvetica; color: rgb(0, 0, 0); line-height: 1.2; pointer-events: all; font-weight: bold; white-space: nowrap;">Model API</div></div></div></foreignObject><text x="404" y="675" fill="rgb(0, 0, 0)" font-family="Helvetica" font-size="12px" text-anchor="middle" font-weight="bold">Model API</text></switch></g><rect x="19.25" y="270" width="100" height="30" fill="none" stroke="none" pointer-events="all"/><g transform="translate(-0.5 -0.5)"><switch><foreignObject pointer-events="none" width="100%" height="100%" requiredFeatures="http://www.w3.org/TR/SVG11/feature#Extensibility" style="overflow: visible; text-align: left;"><div xmlns="http://www.w3.org/1999/xhtml" style="display: flex; align-items: unsafe center; justify-content: unsafe center; width: 1px; height: 1px; padding-top: 285px; margin-left: 69px;"><div data-drawio-colors="color: rgb(0, 0, 0); " style="box-sizing: border-box; font-size: 0px; text-align: center;"><div style="display: inline-block; font-size: 12px; font-family: Helvetica; color: rgb(0, 0, 0); line-height: 1.2; pointer-events: all; font-weight: bold; white-space: nowrap;">Controller API</div></div></div></foreignObject><text x="69" y="289" fill="rgb(0, 0, 0)" font-family="Helvetica" font-size="12px" text-anchor="middle" font-weight="bold">Controller API</text></switch></g><ellipse cx="330" cy="641" rx="12" ry="12" fill="#72c9f7" stroke="rgb(0, 0, 0)" pointer-events="all"/><path d="M 333 626 Q 348 626 348 641 Q 348 656 333 656" fill="none" stroke="rgb(0, 0, 0)" stroke-miterlimit="10" pointer-events="all"/><path d="M 348 641 L 756 640 L 753 380" fill="none" stroke="rgb(0, 0, 0)" stroke-miterlimit="10" pointer-events="stroke"/><path d="M 709 452 L 709 560 L 193.25 557.5" fill="none" stroke="rgb(0, 0, 0)" stroke-miterlimit="10" pointer-events="stroke"/><ellipse cx="706" cy="437" rx="12" ry="12" fill="#72c9f7" stroke="rgb(0, 0, 0)" transform="rotate(90,709,437)" pointer-events="all"/><path d="M 709 422 Q 724 422 724 437 Q 724 452 709 452" fill="none" stroke="rgb(0, 0, 0)" stroke-miterlimit="10" transform="rotate(90,709,437)" pointer-events="all"/><path d="M 709 422 L 708.76 379.6" fill="none" stroke="rgb(0, 0, 0)" stroke-miterlimit="10" pointer-events="stroke"/><rect x="628" y="460" width="80" height="30" fill="none" stroke="none" pointer-events="all"/><g transform="translate(-0.5 -0.5)"><switch><foreignObject pointer-events="none" width="100%" height="100%" requiredFeatures="http://www.w3.org/TR/SVG11/feature#Extensibility" style="overflow: visible; text-align: left;"><div xmlns="http://www.w3.org/1999/xhtml" style="display: flex; align-items: unsafe center; justify-content: unsafe center; width: 1px; height: 1px; padding-top: 475px; margin-left: 668px;"><div data-drawio-colors="color: rgb(0, 0, 0); " style="box-sizing: border-box; font-size: 0px; text-align: center;"><div style="display: inline-block; font-size: 12px; font-family: Helvetica; color: rgb(0, 0, 0); line-height: 1.2; pointer-events: all; font-weight: bold; white-space: nowrap;">Repo API</div></div></div></foreignObject><text x="668" y="479" fill="rgb(0, 0, 0)" font-family="Helvetica" font-size="12px" text-anchor="middle" font-weight="bold">Repo API</text></switch></g><ellipse cx="750" cy="268" rx="12" ry="12" fill="#72c9f7" stroke="rgb(0, 0, 0)" transform="rotate(90,753,268)" pointer-events="all"/><path d="M 753 253 Q 768 253 768 268 Q 768 283 753 283" fill="none" stroke="rgb(0, 0, 0)" stroke-miterlimit="10" transform="rotate(90,753,268)" pointer-events="all"/><path d="M 753 253 L 753 200" fill="none" stroke="rgb(0, 0, 0)" stroke-miterlimit="10" pointer-events="stroke"/><path d="M 753 283 L 753 330" fill="none" stroke="rgb(0, 0, 0)" stroke-miterlimit="10" pointer-events="stroke"/><ellipse cx="688" cy="268" rx="12" ry="12" fill="#72c9f7" stroke="rgb(0, 0, 0)" transform="rotate(90,691,268)" pointer-events="all"/><path d="M 691 253 Q 706 253 706 268 Q 706 283 691 283" fill="none" stroke="rgb(0, 0, 0)" stroke-miterlimit="10" transform="rotate(90,691,268)" pointer-events="all"/><path d="M 691 247 L 691 200" fill="none" stroke="rgb(0, 0, 0)" stroke-miterlimit="10" pointer-events="stroke"/><path d="M 691 283 L 691 330" fill="none" stroke="rgb(0, 0, 0)" stroke-miterlimit="10" pointer-events="stroke"/><ellipse cx="688" cy="262" rx="12" ry="12" fill="#72c9f7" stroke="rgb(0, 0, 0)" transform="rotate(-90,691,262)" pointer-events="all"/><path d="M 691 247 Q 706 247 706 262 Q 706 277 691 277" fill="none" stroke="rgb(0, 0, 0)" stroke-miterlimit="10" transform="rotate(-90,691,262)" pointer-events="all"/><rect x="436" y="240" width="140" height="50" fill="#7acff5" stroke="rgb(0, 0, 0)" pointer-events="all"/><g transform="translate(-0.5 -0.5)"><switch><foreignObject pointer-events="none" width="100%" height="100%" requiredFeatures="http://www.w3.org/TR/SVG11/feature#Extensibility" style="overflow: visible; text-align: left;"><div xmlns="http://www.w3.org/1999/xhtml" style="display: flex; align-items: unsafe center; justify-content: unsafe center; width: 138px; height: 1px; padding-top: 265px; margin-left: 437px;"><div data-drawio-colors="color: rgb(0, 0, 0); " style="box-sizing: border-box; font-size: 0px; text-align: center;"><div style="display: inline-block; font-size: 12px; font-family: Helvetica; color: rgb(0, 0, 0); line-height: 1.2; pointer-events: all; white-space: normal; overflow-wrap: normal;">«component»<br /><b>Data Model</b></div></div></div></foreignObject><text x="506" y="269" fill="rgb(0, 0, 0)" font-family="Helvetica" font-size="12px" text-anchor="middle">«component»...</text></switch></g><path d="M 553 247 L 569 247 L 569 267 L 553 267 L 553 263 L 549 263 L 549 259 L 553 259 L 553 255 L 549 255 L 549 251 L 553 251 Z" fill="#7acff5" stroke="rgb(0, 0, 0)" stroke-miterlimit="10" pointer-events="all"/><path d="M 553 251 L 557 251 L 557 255 L 553 255 M 553 259 L 557 259 L 557 263 L 553 263" fill="none" stroke="rgb(0, 0, 0)" stroke-miterlimit="10" pointer-events="all"/><path d="M 679.24 264.85 L 576 265" fill="none" stroke="rgb(0, 0, 0)" stroke-miterlimit="10" pointer-events="stroke"/><rect x="584" y="277" width="110" height="30" fill="none" stroke="none" pointer-events="all"/><g transform="translate(-0.5 -0.5)"><switch><foreignObject pointer-events="none" width="100%" height="100%" requiredFeatures="http://www.w3.org/TR/SVG11/feature#Extensibility" style="overflow: visible; text-align: left;"><div xmlns="http://www.w3.org/1999/xhtml" style="display: flex; align-items: unsafe center; justify-content: unsafe center; width: 1px; height: 1px; padding-top: 292px; margin-left: 639px;"><div data-drawio-colors="color: rgb(0, 0, 0); " style="box-sizing: border-box; font-size: 0px; text-align: center;"><div style="display: inline-block; font-size: 12px; font-family: Helvetica; color: rgb(0, 0, 0); line-height: 1.2; pointer-events: all; font-weight: bold; white-space: nowrap;">Data Model API</div></div></div></foreignObject><text x="639" y="296" fill="rgb(0, 0, 0)" font-family="Helvetica" font-size="12px" text-anchor="middle" font-weight="bold">Data Model API</text></switch></g><rect x="756" y="277" width="110" height="30" fill="none" stroke="none" pointer-events="all"/><g transform="translate(-0.5 -0.5)"><switch><foreignObject pointer-events="none" width="100%" height="100%" requiredFeatures="http://www.w3.org/TR/SVG11/feature#Extensibility" style="overflow: visible; text-align: left;"><div xmlns="http://www.w3.org/1999/xhtml" style="display: flex; align-items: unsafe center; justify-content: unsafe center; width: 1px; height: 1px; padding-top: 292px; margin-left: 811px;"><div data-drawio-colors="color: rgb(0, 0, 0); " style="box-sizing: border-box; font-size: 0px; text-align: center;"><div style="display: inline-block; font-size: 12px; font-family: Helvetica; color: rgb(0, 0, 0); line-height: 1.2; pointer-events: all; font-weight: bold; white-space: nowrap;">Persistence API</div></div></div></foreignObject><text x="811" y="296" fill="rgb(0, 0, 0)" font-family="Helvetica" font-size="12px" text-anchor="middle" font-weight="bold">Persistence API</text></switch></g><rect x="708" y="60" width="18.5" height="20" fill="#72c9f7" stroke="rgb(0, 0, 0)" pointer-events="all"/><path d="M 717.25 60 L 717.25 15" fill="none" stroke="rgb(0, 0, 0)" stroke-miterlimit="10" pointer-events="stroke"/><path d="M 712.25 0 Q 722.25 0 722.25 10 Q 722.25 20 712.25 20" fill="none" stroke="rgb(0, 0, 0)" stroke-miterlimit="10" transform="rotate(90,717.25,10)" pointer-events="all"/><path d="M 718 150 L 717.25 80" fill="none" stroke="rgb(0, 0, 0)" stroke-miterlimit="10" pointer-events="stroke"/><rect x="713" y="22" width="80" height="30" fill="none" stroke="none" pointer-events="all"/><g transform="translate(-0.5 -0.5)"><switch><foreignObject pointer-events="none" width="100%" height="100%" requiredFeatures="http://www.w3.org/TR/SVG11/feature#Extensibility" style="overflow: visible; text-align: left;"><div xmlns="http://www.w3.org/1999/xhtml" style="display: flex; align-items: unsafe center; justify-content: unsafe center; width: 1px; height: 1px; padding-top: 37px; margin-left: 753px;"><div data-drawio-colors="color: rgb(0, 0, 0); " style="box-sizing: border-box; font-size: 0px; text-align: center;"><div style="display: inline-block; font-size: 12px; font-family: Helvetica; color: rgb(0, 0, 0); line-height: 1.2; pointer-events: all; font-weight: bold; white-space: nowrap;">SGBD API</div></div></div></foreignObject><text x="753" y="41" fill="rgb(0, 0, 0)" font-family="Helvetica" font-size="12px" text-anchor="middle" font-weight="bold">SGBD API</text></switch></g><path d="M 123 150 L 122 80" fill="none" stroke="rgb(0, 0, 0)" stroke-miterlimit="10" pointer-events="stroke"/></g><switch><g requiredFeatures="http://www.w3.org/TR/SVG11/feature#Extensibility"/><a transform="translate(0,-5)" xlink:href="https://www.drawio.com/doc/faq/svg-export-text-problems" target="_blank"><text text-anchor="middle" font-size="10px" x="50%" y="100%">Text is not SVG - cannot display</text></a></switch></svg>