<?xml version="1.0" encoding="UTF-8" standalone="no"?><svg xmlns="http://www.w3.org/2000/svg" xmlns:xlink="http://www.w3.org/1999/xlink" contentStyleType="text/css" height="399px" preserveAspectRatio="none" style="width:1030px;height:399px;background:#FFFFFF;" version="1.1" viewBox="0 0 1030 399" width="1030px" zoomAndPan="magnify"><defs/><g><rect fill="#FFFFFF" height="188.041" style="stroke:#181818;stroke-width:1.0;" width="10" x="407" y="112.7988"/><rect fill="#FFFFFF" height="129.4199" style="stroke:#181818;stroke-width:1.0;" width="10" x="840" y="142.1094"/><line style="stroke:#181818;stroke-width:0.5;stroke-dasharray:5.0,5.0;" x1="69" x2="69" y1="81.4883" y2="318.8398"/><line style="stroke:#181818;stroke-width:0.5;stroke-dasharray:5.0,5.0;" x1="411.5" x2="411.5" y1="81.4883" y2="318.8398"/><line style="stroke:#181818;stroke-width:0.5;stroke-dasharray:5.0,5.0;" x1="844.5" x2="844.5" y1="81.4883" y2="318.8398"/><line style="stroke:#181818;stroke-width:0.5;stroke-dasharray:5.0,5.0;" x1="976" x2="976" y1="180.8535" y2="318.8398"/><text fill="#000000" font-family="sans-serif" font-size="14" lengthAdjust="spacing" textLength="122" x="5" y="78.5352">gestor de campus</text><ellipse cx="69" cy="13.5" fill="#E2E2F0" rx="8" ry="8" style="stroke:#181818;stroke-width:0.5;"/><path d="M69,21.5 L69,48.5 M56,29.5 L82,29.5 M69,48.5 L56,63.5 M69,48.5 L82,63.5 " fill="none" style="stroke:#181818;stroke-width:0.5;"/><text fill="#000000" font-family="sans-serif" font-size="14" lengthAdjust="spacing" textLength="122" x="5" y="331.375">gestor de campus</text><ellipse cx="69" cy="342.8281" fill="#E2E2F0" rx="8" ry="8" style="stroke:#181818;stroke-width:0.5;"/><path d="M69,350.8281 L69,377.8281 M56,358.8281 L82,358.8281 M69,377.8281 L56,392.8281 M69,377.8281 L82,392.8281 " fill="none" style="stroke:#181818;stroke-width:0.5;"/><rect fill="#E2E2F0" height="30.4883" rx="2.5" ry="2.5" style="stroke:#181818;stroke-width:0.5;" width="189" x="317.5" y="50"/><text fill="#000000" font-family="sans-serif" font-size="14" lengthAdjust="spacing" textLength="175" x="324.5" y="70.5352">component: criar-edificio</text><rect fill="#E2E2F0" height="30.4883" rx="2.5" ry="2.5" style="stroke:#181818;stroke-width:0.5;" width="189" x="317.5" y="317.8398"/><text fill="#000000" font-family="sans-serif" font-size="14" lengthAdjust="spacing" textLength="175" x="324.5" y="338.375">component: criar-edificio</text><rect fill="#E2E2F0" height="30.4883" rx="2.5" ry="2.5" style="stroke:#181818;stroke-width:0.5;" width="89" x="800.5" y="50"/><text fill="#000000" font-family="sans-serif" font-size="14" lengthAdjust="spacing" textLength="75" x="807.5" y="70.5352">infoService</text><rect fill="#E2E2F0" height="30.4883" rx="2.5" ry="2.5" style="stroke:#181818;stroke-width:0.5;" width="89" x="800.5" y="317.8398"/><text fill="#000000" font-family="sans-serif" font-size="14" lengthAdjust="spacing" textLength="75" x="807.5" y="338.375">infoService</text><rect fill="#E2E2F0" height="30.4883" rx="2.5" ry="2.5" style="stroke:#181818;stroke-width:0.5;" width="86" x="933" y="317.8398"/><text fill="#000000" font-family="sans-serif" font-size="14" lengthAdjust="spacing" textLength="72" x="940" y="338.375">dataModel</text><rect fill="#FFFFFF" height="188.041" style="stroke:#181818;stroke-width:1.0;" width="10" x="407" y="112.7988"/><rect fill="#FFFFFF" height="129.4199" style="stroke:#181818;stroke-width:1.0;" width="10" x="840" y="142.1094"/><polygon fill="#181818" points="395,108.7988,405,112.7988,395,116.7988,399,112.7988" style="stroke:#181818;stroke-width:1.0;"/><line style="stroke:#181818;stroke-width:1.0;" x1="69" x2="401" y1="112.7988" y2="112.7988"/><text fill="#000000" font-family="sans-serif" font-size="13" font-weight="bold" lengthAdjust="spacing" textLength="9" x="76" y="108.0566">1</text><text fill="#000000" font-family="sans-serif" font-size="13" lengthAdjust="spacing" textLength="306" x="89" y="108.0566">Escolhe opção de criar edifício e insere os dados</text><polygon fill="#181818" points="828,138.1094,838,142.1094,828,146.1094,832,142.1094" style="stroke:#181818;stroke-width:1.0;"/><line style="stroke:#181818;stroke-width:1.0;" x1="417" x2="834" y1="142.1094" y2="142.1094"/><text fill="#000000" font-family="sans-serif" font-size="13" font-weight="bold" lengthAdjust="spacing" textLength="9" x="424" y="137.3672">2</text><text fill="#000000" font-family="sans-serif" font-size="13" lengthAdjust="spacing" textLength="391" x="437" y="137.3672">criarEdificio(codigo, dimensaoX, dimensaoY, nome, descricao)</text><polygon fill="#181818" points="921,167.4199,931,171.4199,921,175.4199,925,171.4199" style="stroke:#181818;stroke-width:1.0;"/><line style="stroke:#181818;stroke-width:1.0;" x1="850" x2="927" y1="171.4199" y2="171.4199"/><text fill="#000000" font-family="sans-serif" font-size="13" font-weight="bold" lengthAdjust="spacing" textLength="9" x="857" y="166.6777">3</text><text fill="#000000" font-family="sans-serif" font-size="13" lengthAdjust="spacing" textLength="46" x="870" y="166.6777">create()</text><rect fill="#E2E2F0" height="30.4883" rx="2.5" ry="2.5" style="stroke:#181818;stroke-width:0.5;" width="86" x="933" y="150.1094"/><text fill="#000000" font-family="sans-serif" font-size="14" lengthAdjust="spacing" textLength="72" x="940" y="170.6445">dataModel</text><ellipse cx="1015.5" cy="212.1582" fill="none" rx="4" ry="4" style="stroke:#181818;stroke-width:1.5;"/><polygon fill="#181818" points="998.5,208.9082,1008.5,212.9082,998.5,216.9082,1002.5,212.9082" style="stroke:#181818;stroke-width:1.0;"/><line style="stroke:#181818;stroke-width:1.0;" x1="850" x2="1004.5" y1="212.9082" y2="212.9082"/><text fill="#000000" font-family="sans-serif" font-size="13" font-weight="bold" lengthAdjust="spacing" textLength="9" x="857" y="208.166">4</text><text fill="#000000" font-family="sans-serif" font-size="13" lengthAdjust="spacing" textLength="94" x="870" y="208.166">POST: /edificio</text><polygon fill="#181818" points="861,238.2188,851,242.2188,861,246.2188,857,242.2188" style="stroke:#181818;stroke-width:1.0;"/><line style="stroke:#181818;stroke-width:1.0;stroke-dasharray:2.0,2.0;" x1="855" x2="1023" y1="242.2188" y2="242.2188"/><text fill="#000000" font-family="sans-serif" font-size="13" font-weight="bold" lengthAdjust="spacing" textLength="9" x="867" y="237.4766">5</text><text fill="#000000" font-family="sans-serif" font-size="13" lengthAdjust="spacing" textLength="24" x="880" y="237.4766">201</text><polygon fill="#181818" points="428,267.5293,418,271.5293,428,275.5293,424,271.5293" style="stroke:#181818;stroke-width:1.0;"/><line style="stroke:#181818;stroke-width:1.0;stroke-dasharray:2.0,2.0;" x1="422" x2="844" y1="271.5293" y2="271.5293"/><text fill="#000000" font-family="sans-serif" font-size="13" font-weight="bold" lengthAdjust="spacing" textLength="9" x="434" y="266.7871">6</text><text fill="#000000" font-family="sans-serif" font-size="13" lengthAdjust="spacing" textLength="54" x="447" y="266.7871">resposta</text><polygon fill="#181818" points="80,296.8398,70,300.8398,80,304.8398,76,300.8398" style="stroke:#181818;stroke-width:1.0;"/><line style="stroke:#181818;stroke-width:1.0;stroke-dasharray:2.0,2.0;" x1="74" x2="411" y1="300.8398" y2="300.8398"/><text fill="#000000" font-family="sans-serif" font-size="13" font-weight="bold" lengthAdjust="spacing" textLength="9" x="86" y="296.0977">7</text><text fill="#000000" font-family="sans-serif" font-size="13" lengthAdjust="spacing" textLength="54" x="99" y="296.0977">resposta</text><!--MD5=[232886803d1480f2393ae518b892ea32]
@startuml
autonumber

actor "gestor de campus" as ator
participant "component: criar-edificio" as componente
participant "infoService" as infoService
participant "dataModel" as dataModel

ator -> componente: Escolhe opção de criar edifício e insere os dados
activate componente
componente -> infoService: criarEdificio(codigo, dimensaoX, dimensaoY, nome, descricao)
activate infoService
infoService -> dataModel**: create()
infoService ->o] : POST: /edificio
infoService<- - : 201
return resposta
return resposta
@enduml

PlantUML version 1.2022.7(Mon Aug 22 18:01:30 WEST 2022)
(GPL source distribution)
Java Runtime: OpenJDK Runtime Environment
JVM: OpenJDK 64-Bit Server VM
Default Encoding: UTF-8
Language: en
Country: PT
--></g></svg>